<?xml version="1.0" standalone="no"?><!DOCTYPE svg PUBLIC "-//W3C//DTD SVG 1.1//EN" "http://www.w3.org/Graphics/SVG/1.1/DTD/svg11.dtd" ><svg xmlns="http://www.w3.org/2000/svg"><metadata></metadata><defs><font id="fonteditor" horiz-adv-x="256"><font-face font-family="NfOSWJyeHLIOS" font-weight="400" font-stretch="normal" units-per-em="256" panose-1="2 1 6 1 3 1 1 1 1 1" ascent="275" descent="-38" x-height="1" bbox="4 -34 243 249" underline-thickness="0" underline-position="0" unicode-range="U+002d-88c5" /><missing-glyph horiz-adv-x="256" d="M85 4 L171 4 L171 175 L85 175 L85 4 Z" /><glyph glyph-name="hyphen" unicode="-" d="M96 43 L95 36 L22 36 L24 43 L96 43 Z" /><glyph glyph-name="G" unicode="g" d="M130 125 L129 118 Q116 124 102 124 Q25 114 15 31 Q15 4 34 4 Q74 4 113 76 L123 76 Q123 74 121 70 Q121 65 120 62 Q107 -38 40 -34 Q32 -34 24 -33 L26 -27 L32 -27 Q38 -27 40 -27 Q97 -30 109 56 Q75 0 39 0 Q8 2 5 35 Q15 119 102 130 Q118 130 130 125 Z" /><glyph glyph-name="J" unicode="j" d="M24 -31 L23 -25 Q72 -10 74 58 Q83 107 93 123 Q88 123 77 124 L60 124 Q10 122 10 107 Q13 79 52 64 L49 58 Q7 76 5 102 Q5 132 64 130 Q68 130 82 129 Q88 129 90 129 Q99 128 104 128 Q90 113 82 58 Q82 -13 24 -31 Z" /><glyph glyph-name="S" unicode="s" d="M115 124 L114 117 Q89 124 72 124 Q30 123 29 93 Q29 80 63 71 Q103 60 104 40 Q100 4 46 0 Q24 0 4 8 L6 15 Q33 5 51 5 Q95 4 95 38 Q95 53 60 63 Q21 74 21 92 Q24 126 80 130 Q99 130 115 124 Z" /><glyph glyph-name="n" unicode="n" d="M81 5 L83 3 Q88 3 91 4 L90 0 L85 0 Q82 0 80 0 Q74 0 73 4 Q73 18 83 45 Q93 73 93 85 L92 87 Q57 75 14 0 L7 0 Q7 1 7 2 Q8 5 8 7 Q26 79 25 91 L33 91 L34 90 Q34 76 25 43 Q24 38 22 31 Q21 26 20 24 Q66 91 93 93 Q99 92 102 84 Q101 75 90 41 Q80 10 81 5 Z" /><glyph glyph-name="r" unicode="r" d="M23 91 L31 90 Q31 74 20 38 Q19 36 18 32 Q18 29 17 27 Q18 28 18 29 Q18 30 18 31 Q46 93 71 93 Q76 93 80 90 L78 85 Q74 87 71 87 Q45 83 12 0 L4 0 Q5 6 10 22 Q23 75 23 91 Z" /><glyph glyph-name="t" unicode="t" d="M7 91 L24 91 L30 119 L38 119 L32 91 L69 91 L68 85 L30 85 Q29 82 26 70 Q25 64 24 61 Q15 25 15 11 Q15 4 32 4 Q42 4 51 7 L49 1 Q40 0 32 0 Q8 0 8 18 Q8 32 17 64 Q18 68 20 75 Q21 83 22 85 L6 85 L7 91 Z" /><glyph glyph-name="u" unicode="u" d="M26 91 L34 91 L34 88 Q35 77 21 40 Q11 12 12 6 L13 4 Q15 4 28 13 Q68 38 92 91 L100 91 Q99 89 97 79 Q96 71 94 66 Q81 15 81 4 Q81 1 89 3 Q91 4 92 4 L91 0 L79 0 Q73 0 73 4 Q73 18 87 64 Q88 70 89 72 Q44 2 13 0 Q6 1 4 8 Q4 17 15 49 Q27 82 26 91 Z" /><glyph glyph-name="uni4E2D" unicode="&#x4e2d;" d="M141 214 L146 214 Q154 209 155 202 L153 196 L156 194 Q181 203 190 203 L192 203 Q199 203 210 186 L213 175 Q200 140 192 140 Q185 135 185 131 L192 119 Q192 110 176 110 Q149 107 149 100 L149 86 Q152 58 152 37 L152 28 Q152 20 144 20 Q131 20 131 47 L133 91 L133 97 L130 100 Q126 100 120 95 L121 90 Q121 84 110 80 Q83 87 55 121 L38 153 L38 157 L40 159 L45 159 Q50 157 66 140 Q80 134 107 112 Q117 136 129 136 Q135 136 135 153 L135 158 L133 161 L82 140 Q65 142 65 148 L65 154 Q71 166 124 182 Q137 185 137 192 L135 210 L141 214 ZM149 148 L151 148 Q171 161 183 179 L181 181 Q151 173 151 163 L149 148 Z" /><glyph glyph-name="uni4F53" unicode="&#x4f53;" d="M173 236 L176 236 Q185 235 185 227 L183 213 L183 195 L185 193 L201 196 Q208 196 214 175 Q214 166 193 162 L192 160 L202 150 L203 147 Q203 132 187 126 Q182 121 182 117 L185 114 L195 115 L197 115 Q232 115 239 92 Q235 75 230 75 L227 75 Q219 76 201 91 L184 96 L183 91 Q183 88 204 85 L206 82 L206 78 Q205 75 186 64 Q186 20 169 20 Q160 20 156 47 Q162 53 162 55 L159 57 L150 57 Q143 57 134 68 Q99 33 78 33 L61 30 Q53 31 53 34 L53 38 L63 49 Q47 60 47 79 Q51 102 51 114 L51 118 Q51 124 45 124 L36 124 L22 121 Q18 123 18 124 L18 127 Q18 134 60 170 Q74 189 82 189 Q87 189 94 171 Q94 162 68 143 Q82 129 86 115 L87 114 L87 110 Q78 56 68 56 L67 55 Q67 52 75 48 Q109 65 164 140 L165 141 L165 145 L163 148 Q133 133 125 133 L122 133 Q105 136 105 146 L105 149 Q112 160 166 184 L167 188 L168 219 L167 229 Q169 234 173 236 ZM163 97 L147 79 Q147 81 164 85 Q167 88 167 91 L167 93 L163 97 Z" /><glyph glyph-name="uni4F7F" unicode="&#x4f7f;" d="M139 238 Q145 236 151 225 Q162 228 178 229 Q183 229 192 215 L192 210 Q185 196 167 196 Q151 189 151 186 L152 184 Q163 187 170 187 Q191 180 191 171 Q187 162 167 153 Q173 148 173 144 Q173 131 143 123 Q139 121 130 86 Q130 82 167 65 Q180 55 223 40 Q234 35 236 31 L236 28 Q234 18 226 18 L223 18 Q184 26 162 43 Q128 70 121 70 L105 53 Q91 44 62 44 L58 43 Q49 43 44 55 L41 56 L37 55 L33 58 L33 61 Q33 64 46 84 L51 100 L50 105 Q57 122 57 129 L57 133 Q57 139 51 139 Q41 135 26 121 L22 121 L20 123 L20 127 L79 192 L84 192 Q92 192 101 175 Q101 169 84 159 L73 149 Q77 140 78 126 L76 104 Q80 99 108 91 Q113 91 121 114 L119 116 L113 115 Q107 115 106 127 L95 126 Q86 133 86 145 Q86 153 97 160 L105 159 Q115 171 129 176 L117 182 Q108 192 108 197 L108 202 Q113 208 124 217 L125 219 Q123 219 122 226 Q127 238 139 238 ZM113 145 L116 142 L119 142 L122 145 L113 145 ZM74 89 Q65 66 56 60 L57 59 L62 59 Q94 66 99 77 Q99 81 74 89 Z" /><glyph glyph-name="uni538B" unicode="&#x538b;" d="M170 217 Q178 217 187 202 L187 199 Q187 191 164 184 Q157 176 157 167 Q157 164 169 159 Q178 147 181 145 L189 145 Q205 145 215 130 L215 126 Q215 115 185 107 Q182 104 174 82 Q163 73 163 69 L166 67 L178 67 Q206 67 212 76 L216 76 Q232 71 232 62 L232 58 Q232 42 180 39 Q121 39 121 60 Q121 71 140 71 Q159 80 159 96 L160 102 Q160 105 146 115 L145 120 Q145 124 157 132 L159 137 Q159 145 152 151 L132 119 Q111 89 87 80 Q49 51 26 50 L23 50 Q14 50 14 55 Q14 65 34 65 Q85 82 140 177 Q137 180 124 182 Q116 188 116 197 L116 200 Q116 205 141 207 Q165 217 170 217 ZM217 112 L222 112 Q243 104 243 92 Q239 80 230 80 Q219 80 208 99 Q208 106 217 112 Z" /><glyph glyph-name="uni5668" unicode="&#x5668;" d="M122 231 L125 228 L125 226 L121 219 Q121 216 129 216 L144 200 Q147 200 150 207 Q150 209 139 210 L133 217 Q133 218 147 221 Q155 229 163 229 Q177 229 177 220 Q177 210 159 190 Q172 174 185 174 Q196 168 196 161 Q194 150 187 150 Q169 155 169 161 Q167 170 165 170 L154 170 Q150 170 126 159 L126 156 L144 161 L158 158 L158 154 Q152 147 126 132 L126 129 Q175 118 175 100 L175 98 Q172 91 166 91 L163 91 Q146 97 121 118 Q110 91 92 85 L73 81 Q57 81 57 86 Q57 96 69 100 Q83 100 102 118 L101 119 L86 116 Q77 117 77 125 L77 127 Q77 146 90 146 L94 146 L98 143 Q108 146 108 149 Q108 165 97 169 L93 171 L94 160 Q90 152 83 152 Q71 152 65 166 Q59 177 55 205 Q55 212 58 213 L61 213 Q66 208 70 208 Q82 208 116 231 L122 231 ZM77 197 Q79 191 83 191 L91 192 L94 191 Q101 191 107 211 Q88 197 77 197 ZM119 206 L111 184 Q117 174 117 172 L116 166 L119 166 Q131 173 131 180 Q126 188 121 205 L119 206 ZM198 98 Q209 98 209 80 Q209 72 202 60 Q209 52 209 46 Q207 37 200 37 Q177 45 177 61 L178 69 Q170 69 161 63 L163 48 L162 45 L157 45 Q150 45 138 79 L138 82 L140 84 L144 84 Q148 84 158 76 Q175 87 198 98 ZM113 93 L119 93 Q129 91 129 82 Q129 63 101 57 Q107 57 119 53 Q119 35 105 35 Q84 38 84 49 Q84 53 93 60 L105 77 Q81 62 72 49 Q78 36 78 33 Q75 26 73 26 L70 26 Q58 26 48 57 L47 66 L48 69 L51 69 Q55 69 64 62 Q99 85 113 93 Z" /><glyph glyph-name="uni5B57" unicode="&#x5b57;" d="M135 230 Q163 222 163 205 L166 202 Q175 211 179 211 Q208 200 208 191 L208 189 Q208 183 195 179 L188 180 L178 180 Q172 180 159 168 L157 168 Q155 168 155 171 L156 179 L154 181 Q145 181 86 161 Q77 161 72 156 L74 130 Q71 114 67 114 L62 114 Q48 123 48 143 Q55 187 61 187 L64 187 Q67 187 69 176 L70 175 L73 173 Q124 190 124 195 Q124 200 112 211 L111 219 Q111 227 135 230 ZM148 155 Q159 155 160 141 L154 125 Q154 120 159 120 L169 122 Q195 119 195 108 Q193 97 184 97 L169 97 L165 93 L165 81 Q158 35 147 35 Q147 31 118 26 L114 26 L111 29 L111 33 Q112 36 122 40 Q139 53 139 89 L135 92 L128 92 L102 88 Q95 88 92 93 L92 96 Q96 103 130 114 L131 115 L131 119 L128 123 L115 120 Q103 120 97 130 L97 134 Q97 144 119 147 Q139 155 148 155 Z" /><glyph glyph-name="uni5B89" unicode="&#x5b89;" d="M106 228 L110 228 Q133 219 140 204 L141 199 Q141 190 128 189 Q113 189 113 201 Q103 216 103 221 L103 225 L106 228 ZM194 210 Q215 202 215 194 Q215 179 170 162 L154 150 L150 150 Q150 155 177 181 L178 185 Q84 155 71 155 Q65 152 65 150 L65 140 L66 101 Q63 94 57 94 L52 94 Q41 94 41 112 Q52 172 63 172 L68 171 Q139 186 185 203 Q190 210 194 210 ZM127 155 L140 141 L140 136 L136 123 L144 123 L171 127 Q178 122 178 114 Q178 99 169 99 Q153 99 153 92 Q161 79 180 73 L184 67 Q180 50 168 50 L157 50 L138 53 L126 53 Q100 28 75 28 L62 31 L62 34 L96 46 L112 57 Q104 67 104 73 L104 80 L102 83 L99 82 L81 81 Q67 83 67 91 Q71 106 81 106 Q115 113 115 122 Q121 155 127 155 ZM114 82 Q118 74 124 74 Q134 84 134 90 L132 91 Q114 86 114 82 ZM147 88 Q142 82 142 79 L143 78 L145 78 Q149 78 151 81 Q149 88 147 88 Z" /><glyph glyph-name="uni6027" unicode="&#x6027;" d="M168 226 Q181 226 181 202 L186 172 Q200 157 216 157 Q221 155 221 150 Q221 144 207 137 Q190 133 190 125 Q195 119 203 115 L204 110 Q204 107 196 101 L179 78 L179 76 L189 77 L206 77 Q215 77 220 70 L220 62 Q220 44 195 44 L151 43 Q125 47 125 60 Q125 70 138 72 L143 72 Q150 71 150 69 L158 72 Q158 90 144 94 L140 102 Q140 107 170 117 L172 120 L169 123 Q140 112 108 107 Q94 87 94 47 L95 43 Q91 30 82 30 Q70 30 70 59 Q76 70 76 105 L74 106 Q63 91 54 91 Q41 91 35 118 Q39 141 43 141 L47 141 L54 137 Q63 144 77 169 L83 183 L83 195 L85 197 Q108 192 108 181 L106 166 Q114 155 114 150 Q114 146 102 135 L100 121 L102 120 L125 162 Q125 170 130 170 L135 169 L141 170 Q154 166 154 157 Q149 142 124 125 L124 123 Q170 139 171 144 Q164 214 152 214 L151 219 Q151 226 168 226 ZM189 153 L189 151 L191 151 L189 153 ZM76 148 Q67 137 67 128 L74 114 L76 114 L77 119 L77 135 L78 147 L76 148 ZM163 73 L170 73 L170 75 L165 75 L163 73 Z" /><glyph glyph-name="uni6587" unicode="&#x6587;" d="M89 216 Q93 216 109 206 Q125 202 125 193 Q125 181 108 181 Q97 181 81 163 L78 163 L78 165 L88 188 L88 190 Q80 200 80 208 Q84 216 89 216 ZM153 172 Q168 172 168 167 Q163 157 130 137 L117 101 Q122 101 164 80 Q174 75 218 64 Q241 52 241 44 L241 41 L238 40 L211 43 L186 42 Q156 42 121 72 L105 80 Q91 53 68 53 L52 53 L38 55 L30 54 L16 56 L16 61 Q18 63 57 69 Q89 78 89 86 Q89 89 63 93 Q36 99 36 104 L36 108 Q36 111 44 112 L98 104 Q102 104 110 124 L108 125 Q82 117 74 117 L71 117 Q59 117 54 127 L53 132 L53 135 Q66 135 126 165 Q144 172 153 172 Z" /><glyph glyph-name="uni672C" unicode="&#x672c;" d="M130 223 Q133 223 150 212 Q153 212 157 205 L156 191 L156 188 L158 185 Q160 185 175 197 L187 198 Q192 198 195 193 L195 191 Q195 189 173 179 Q153 167 152 163 L157 148 L157 143 Q146 130 146 115 L148 113 L158 114 L174 114 Q212 114 225 87 L226 80 Q224 69 221 69 L217 69 Q213 69 185 86 Q177 90 172 90 L170 89 L173 84 L173 80 Q172 78 148 71 Q144 71 142 38 Q137 34 127 34 Q125 34 116 49 Q113 50 99 64 Q67 38 56 38 L32 36 L31 37 L31 41 Q70 69 98 111 Q98 120 124 144 L124 148 L122 151 Q110 146 93 146 Q86 146 86 160 Q87 166 89 166 L93 166 Q125 168 125 174 Q125 191 119 207 L119 211 Q125 221 130 223 ZM110 78 L111 77 Q124 80 124 87 L124 89 L122 91 Q110 80 110 78 Z" /><glyph glyph-name="uni6E90" unicode="&#x6e90;" d="M193 223 Q197 222 197 220 L197 217 Q197 212 166 200 L166 198 Q175 198 176 186 Q176 176 152 162 L153 160 L198 177 Q215 176 215 172 L215 167 Q210 163 193 124 Q177 99 153 99 L152 98 L152 96 Q163 78 163 49 Q163 33 150 33 Q148 33 125 56 L121 56 Q114 51 107 50 Q100 50 100 60 L100 74 Q101 104 109 104 Q117 102 128 60 Q137 53 146 53 L148 56 L148 60 Q145 97 135 97 Q129 97 126 121 Q121 137 118 137 Q88 112 88 109 Q88 96 68 78 L52 71 Q41 73 41 81 L41 84 L61 97 L75 114 Q75 120 54 129 L51 137 L51 139 Q54 144 60 144 L89 137 Q92 137 97 131 Q121 151 132 192 Q123 196 122 199 L122 202 Q122 206 157 216 Q165 223 193 223 ZM67 199 L70 199 Q99 191 106 181 L106 175 Q105 172 89 164 L85 164 L84 167 L85 172 Q65 188 65 190 L64 195 L67 199 ZM138 189 L138 181 Q138 174 129 153 L131 153 L161 185 L161 187 Q161 188 149 191 Q145 195 142 195 Q138 194 138 189 ZM161 146 Q170 146 182 139 L191 161 L189 162 Q174 156 161 146 ZM143 125 L142 124 L142 122 Q142 115 147 115 L160 120 Q150 125 143 125 ZM184 89 Q206 81 206 68 L206 66 Q206 57 193 55 Q184 55 170 75 L170 79 Q170 88 184 89 Z" /><glyph glyph-name="uni7248" unicode="&#x7248;" d="M74 217 L76 217 Q93 217 108 190 L110 176 L110 173 Q110 151 83 151 Q71 151 64 163 L62 163 L66 144 L65 128 L67 126 L76 128 Q93 124 94 113 Q112 135 117 156 Q117 158 146 188 Q149 196 156 196 Q172 188 172 177 Q172 169 149 169 Q122 152 122 137 L122 128 L125 125 L162 150 L166 150 Q175 150 175 139 L175 126 Q175 116 167 91 Q167 88 199 62 Q199 54 215 46 L215 43 Q215 40 207 40 L195 42 L193 42 L179 40 Q172 40 147 61 L144 62 Q116 42 96 42 Q91 43 91 50 Q91 54 116 62 Q133 70 133 77 L119 88 Q117 87 102 61 L97 59 Q82 59 82 73 L82 90 Q82 107 76 107 Q60 101 60 98 L60 86 Q54 47 48 47 L43 47 L42 52 L43 60 L42 75 Q42 83 45 92 L42 101 Q48 117 48 124 L48 128 Q48 143 44 163 Q47 177 49 177 L52 177 L58 171 L62 173 L79 171 Q86 173 86 180 Q86 186 71 212 L71 214 L74 217 ZM128 107 L151 96 Q158 96 163 127 L160 128 Q129 109 128 107 ZM108 114 L110 113 L114 117 L113 123 Q110 123 108 114 ZM102 100 Q99 94 99 90 L99 81 L101 79 Q108 88 108 95 Q106 100 102 100 Z" /><glyph glyph-name="uni7279" unicode="&#x7279;" d="M113 241 Q122 241 122 230 L122 189 L118 158 L118 150 L119 148 Q126 148 130 171 L135 171 Q135 167 140 165 L145 165 Q172 168 172 178 L172 182 Q164 191 164 195 Q168 207 177 207 Q190 200 190 190 Q194 183 220 168 L220 163 Q218 159 202 152 Q212 152 219 144 L219 139 Q219 135 201 133 L198 129 Q213 124 216 119 L216 115 L196 104 Q192 95 192 77 L192 68 L190 54 L191 50 Q180 27 170 27 Q155 33 155 54 L175 53 Q178 53 181 57 L182 89 L182 95 L180 98 Q158 92 152 92 L148 92 Q142 95 142 101 Q142 105 148 116 Q136 128 136 134 Q136 138 153 140 L153 142 L141 143 Q136 143 133 123 L134 117 Q124 97 114 84 L112 74 L113 65 Q110 16 103 16 L98 16 Q98 26 85 42 L85 44 Q88 50 92 50 L98 49 L100 52 L100 68 L97 71 Q88 63 67 60 Q50 63 50 76 Q50 85 72 89 Q104 102 104 111 L104 114 L101 117 Q70 103 63 103 Q58 103 44 112 Q36 112 36 115 L36 119 Q51 144 58 152 L61 152 Q66 149 66 142 Q66 138 49 117 L54 117 Q104 134 104 141 Q106 213 109 226 L108 236 Q108 238 113 241 ZM120 124 Q124 125 123 127 L120 124 ZM172 120 L172 118 L174 118 L177 121 L175 121 L172 120 ZM147 85 L151 85 Q165 85 169 62 L166 58 L162 58 Q153 66 145 69 L143 72 L143 76 Q143 83 147 85 Z" /><glyph glyph-name="uni7528" unicode="&#x7528;" d="M190 224 Q199 224 205 219 L204 197 L211 74 Q211 38 203 38 Q197 33 190 33 Q186 33 176 53 Q158 70 158 79 L162 79 Q177 68 182 68 L184 82 Q180 153 180 188 L180 205 L177 208 Q174 208 116 185 L95 183 L91 183 L88 186 L88 188 Q88 194 127 204 Q144 214 190 224 ZM78 198 Q90 191 93 121 Q93 60 66 34 L57 32 Q46 32 46 35 L46 38 Q67 50 75 76 Q81 100 81 130 Q81 165 74 197 L75 198 L78 198 ZM128 183 L132 183 Q135 183 139 171 L141 170 L147 171 Q167 171 167 163 Q167 159 145 147 L144 146 L144 142 Q144 138 164 131 L166 128 L166 126 Q166 120 151 110 L150 106 L151 91 Q151 73 136 59 Q136 55 131 51 L128 51 L127 54 L128 71 L127 97 L126 100 L115 99 Q99 99 99 112 L99 119 Q99 127 119 141 L120 143 Q102 145 102 155 L102 157 Q102 160 118 164 Q118 177 128 183 ZM114 125 Q124 128 124 134 L122 135 Q113 130 114 125 Z" /><glyph glyph-name="uni7801" unicode="&#x7801;" d="M179 222 L181 222 Q206 212 206 198 Q206 174 184 164 L164 145 L166 143 L220 161 Q233 161 236 134 L236 127 Q236 94 212 40 L206 35 L201 35 Q182 51 182 64 L171 75 L172 77 L206 63 Q210 63 218 96 Q222 105 222 130 L222 140 L218 143 Q207 137 163 123 Q163 120 148 119 L142 119 L140 122 Q147 140 147 156 Q148 170 151 170 L154 170 L163 164 Q168 164 170 169 L170 171 Q170 173 151 181 Q143 189 141 200 Q141 204 159 209 L179 222 ZM109 214 L112 214 Q122 212 122 210 L122 207 Q111 184 79 146 L80 143 Q98 154 101 154 Q118 150 118 137 L118 134 Q118 119 107 107 Q114 107 120 85 Q118 72 111 72 Q97 72 80 92 L80 78 Q80 72 75 70 L72 70 Q68 70 66 95 L66 125 L64 127 Q38 104 27 104 L25 104 Q21 106 21 110 Q23 114 45 129 Q72 157 87 179 Q87 180 65 184 L58 192 L58 195 L98 209 Q105 214 109 214 ZM80 127 L78 125 Q80 121 80 114 L81 106 Q94 116 94 122 L80 127 ZM199 115 Q205 115 208 109 L208 102 Q208 95 183 95 L136 84 Q130 86 129 89 L129 94 Q129 102 145 104 Q184 115 199 115 Z" /><glyph glyph-name="uni7F29" unicode="&#x7f29;" d="M120 224 L122 224 Q143 224 152 207 L151 201 Q162 201 206 223 Q220 217 227 204 L227 201 Q227 182 190 180 Q173 165 163 162 L159 162 L159 164 L182 190 L182 192 Q167 185 132 179 Q105 171 105 167 Q108 162 108 154 Q108 146 97 144 L94 144 Q87 149 87 161 Q85 180 80 180 Q58 158 58 156 Q75 145 75 137 L75 133 Q75 127 63 112 L72 96 L77 102 L79 102 Q82 102 83 93 Q70 48 48 36 L46 36 Q38 39 38 50 Q38 65 52 81 Q57 90 57 95 L54 97 L44 97 Q39 97 36 102 L36 104 Q40 127 47 127 Q47 129 50 129 L51 132 L49 133 L37 131 Q29 131 29 140 Q32 162 43 162 Q69 185 69 206 L70 207 L74 207 Q88 200 88 188 L89 187 L101 187 Q136 195 136 198 Q136 199 121 204 Q112 212 112 217 L112 220 Q112 222 120 224 ZM125 164 Q132 158 132 154 Q132 149 123 136 L124 118 L119 55 Q114 38 109 33 L106 33 Q103 34 103 39 L103 44 Q109 71 113 119 L114 122 L112 123 L92 106 L89 106 L86 110 Q86 115 111 141 Q118 152 120 164 L125 164 ZM175 157 L182 157 Q189 155 190 153 L190 149 Q190 144 165 135 L164 131 L168 129 L176 134 Q198 128 198 122 L199 105 Q195 40 175 40 Q161 45 148 58 L147 52 L142 52 Q139 52 134 100 Q134 118 144 118 L149 123 Q134 131 134 141 Q141 154 175 157 ZM154 106 Q154 104 168 100 Q172 96 173 90 Q172 82 169 82 L164 82 Q147 93 147 99 L148 100 L147 101 L145 98 L149 74 L155 76 L157 76 L174 68 Q179 68 179 102 Q179 114 174 114 Q163 114 154 106 Z" /><glyph glyph-name="uni86DB" unicode="&#x86db;" d="M159 249 Q165 249 168 243 L168 241 L166 230 L166 169 Q166 167 169 167 L181 170 L187 170 Q192 170 195 165 L195 161 Q182 151 164 143 L162 131 L162 127 L165 124 Q183 130 183 135 L181 143 L183 144 Q194 138 206 136 L208 133 L208 128 Q202 121 175 108 Q172 94 163 89 L163 87 Q165 85 192 80 Q210 73 235 58 Q241 57 241 55 L241 53 L222 40 L216 40 Q209 40 186 56 L166 64 L164 62 L166 27 Q163 12 155 12 Q150 12 138 40 L140 42 L143 42 L152 37 L154 39 Q154 76 145 76 L143 76 Q99 46 53 13 Q45 8 39 8 L35 8 L33 10 L33 14 Q33 22 54 27 Q94 50 140 96 L120 91 Q113 91 111 103 Q111 110 128 110 Q151 116 151 122 L151 135 Q148 143 137 143 Q132 141 122 133 L118 133 L117 138 L121 153 L120 154 Q116 147 90 142 L89 141 Q89 139 99 138 L103 128 Q103 122 87 109 L98 101 L99 95 Q99 81 87 71 L81 71 L78 74 Q50 55 35 55 Q29 55 26 60 L26 66 Q54 72 54 94 L54 97 L51 99 Q48 99 47 86 L41 80 L38 80 Q30 80 21 97 L15 156 L15 162 Q16 168 19 168 L31 165 Q54 171 54 177 Q54 191 49 204 L49 207 Q54 214 61 214 Q70 214 73 206 L72 199 L72 188 L74 186 L99 204 L102 204 Q131 204 131 180 Q139 174 138 160 L139 157 L141 157 Q152 157 152 169 Q154 182 154 209 L154 217 Q154 234 151 244 L151 246 Q152 249 159 249 ZM39 143 L38 140 Q43 119 46 119 Q55 121 55 127 L55 137 Q55 140 39 143 ZM61 84 L63 83 Q74 88 74 102 L72 102 Q63 102 61 84 Z" /><glyph glyph-name="uni88C5" unicode="&#x88c5;" d="M143 239 Q150 239 153 222 Q156 216 158 216 L160 216 L179 217 L183 214 L183 212 L160 194 L159 178 L161 176 L165 176 Q175 176 177 171 L177 168 Q177 164 157 161 L151 156 L147 156 L140 160 L135 159 L127 160 L126 158 Q136 150 140 150 L154 151 L155 150 L155 145 L118 97 L121 95 L124 95 Q128 98 147 131 L164 134 Q169 134 173 128 L173 123 Q173 121 156 110 Q150 100 135 100 L134 96 Q134 91 174 87 L209 79 L229 78 L233 77 L233 74 Q213 57 190 51 Q178 51 134 74 L111 29 Q97 13 93 13 L89 13 Q84 13 81 35 L85 64 L83 64 Q44 30 30 30 Q29 30 22 38 L22 41 Q43 51 54 61 Q93 89 93 103 L90 104 L83 104 Q76 104 73 110 L73 121 Q73 122 77 124 Q82 123 82 122 Q115 134 120 139 L117 140 L117 146 Q117 150 108 158 L107 157 L103 135 L99 135 Q96 135 92 147 L89 148 Q65 124 55 124 L49 123 Q31 123 31 142 L30 148 Q30 154 42 156 Q42 152 45 150 Q64 152 91 175 Q90 179 85 179 Q66 171 59 171 Q42 173 42 187 Q42 192 73 198 Q78 198 86 193 L87 195 L81 226 L81 228 L84 228 Q92 228 101 193 Q101 189 104 189 Q111 194 135 203 L137 207 Q134 221 127 235 Q127 238 143 239 ZM116 176 L118 174 Q141 174 142 180 L139 183 Q116 180 116 176 ZM108 165 L109 162 L115 164 L110 168 L108 165 ZM99 108 L101 106 L103 106 Q111 113 111 116 Q99 111 99 108 ZM108 86 Q105 86 97 44 L99 43 Q111 59 121 80 Q121 84 108 86 Z" /></font>
</defs>
</svg>
